<svg version="1.1" id="Layer_1" xmlns="http://www.w3.org/2000/svg" xmlns:xlink="http://www.w3.org/1999/xlink" x="0px" y="0px"
	 width="100%" viewBox="0 0 768 768" enable-background="new 0 0 768 768" xml:space="preserve">
<path fill="#000000" opacity="1.000000" stroke="none" 
	d="
M291.916931,371.849060 
	C328.432404,350.770050 364.634491,329.880432 400.814362,308.952393 
	C410.953918,303.087158 416.920563,304.590881 422.488861,314.763733 
	C436.226746,339.861969 445.140839,366.515839 447.365082,395.133850 
	C453.742676,477.189392 423.304535,542.329041 356.478973,590.167542 
	C328.891663,609.916443 297.647400,621.404175 264.012054,625.002686 
	C200.812347,631.764099 144.613083,614.878113 97.126274,572.021179 
	C60.343624,538.824890 37.649376,497.520233 30.694920,448.366730 
	C20.072754,373.290131 43.184139,309.684326 99.049973,258.670959 
	C131.009567,229.487335 169.303650,212.851807 212.395416,207.593658 
	C220.317688,206.626953 228.246445,205.784683 236.235077,205.844879 
	C245.262177,205.912872 249.728134,210.233017 250.181503,219.208023 
	C250.265488,220.870285 250.208511,222.539932 250.208694,224.206161 
	C250.215012,278.859589 250.214966,333.513031 250.246094,388.166473 
	C250.247314,390.292786 249.843063,392.477234 251.039001,395.400238 
	C264.654999,387.552063 278.125092,379.787964 291.916931,371.849060 
M226.807312,373.500000 
	C226.807007,348.174225 226.805267,322.848419 226.806839,297.522644 
	C226.808136,276.862091 226.822754,256.201569 226.811340,235.541016 
	C226.807770,229.080109 226.553268,228.887604 220.368515,229.942291 
	C219.713715,230.053955 219.050980,230.124741 218.389618,230.191696 
	C177.014420,234.379013 140.926727,250.803284 110.949600,279.273804 
	C66.458290,321.529053 46.801041,373.704559 52.195118,435.048431 
	C54.443169,460.614319 62.134262,484.500549 74.581406,506.879883 
	C114.731308,579.067322 196.399612,616.674500 277.135010,599.425171 
	C359.664490,581.792480 420.688019,511.802673 425.539001,425.148926 
	C426.851440,401.704620 423.407593,378.696411 415.672760,356.450989 
	C412.966705,348.668304 410.154694,340.890503 405.820831,333.505005 
	C404.053467,334.312653 402.652100,334.823547 401.377502,335.555267 
	C386.795227,343.927063 372.229492,352.327789 357.664673,360.729980 
	C320.317047,382.275116 283.008728,403.888885 245.601303,425.329681 
	C235.743515,430.979858 226.875183,425.717621 226.825073,414.488098 
	C226.765594,401.158966 226.808212,387.829376 226.807312,373.500000 
z"/>
<path fill="#000000" opacity="1.000000" stroke="none" 
	d="
M625.209473,543.000000 
	C625.209229,566.330322 625.214233,589.160645 625.205750,611.990967 
	C625.201843,622.595459 621.429260,626.333252 610.740967,626.339478 
	C592.576660,626.350037 574.412415,626.366638 556.248108,626.348328 
	C545.881287,626.337891 541.846985,622.280273 541.824280,611.732605 
	C541.782349,592.235229 541.815063,572.737793 541.814697,553.240356 
	C541.812683,436.922333 541.810364,320.604309 541.807190,204.286270 
	C541.806885,192.481812 545.559326,188.666504 557.214355,188.662979 
	C575.045349,188.657593 592.876343,188.657761 610.707336,188.664078 
	C621.310974,188.667831 625.217224,192.543549 625.217041,203.044815 
	C625.215088,316.196533 625.211975,429.348267 625.209473,543.000000 
M601.803955,445.500000 
	C601.808105,402.005981 601.813782,358.511963 601.815674,315.017944 
	C601.817139,282.355743 601.748596,249.693268 601.891846,217.031708 
	C601.910645,212.744598 600.752319,211.086685 596.257385,211.270859 
	C588.438293,211.591217 580.596558,211.360168 572.764282,211.353424 
	C565.216248,211.346924 565.218872,211.343094 565.219055,219.040833 
	C565.221680,338.691101 565.223450,458.341370 565.226135,577.991638 
	C565.226318,584.824036 565.380249,591.660706 565.179565,598.487061 
	C565.067627,602.296753 566.235962,603.865601 570.302917,603.735718 
	C578.626587,603.469971 586.964722,603.666870 595.296936,603.661194 
	C601.811035,603.656799 601.812012,603.648743 601.811646,596.979370 
	C601.809143,546.819580 601.806213,496.659790 601.803955,445.500000 
z"/>
<path fill="#000000" opacity="1.000000" stroke="none" 
	d="
M271.788574,264.000000 
	C271.789337,222.189331 271.785675,180.878677 271.806488,139.568008 
	C271.807495,137.579651 271.782837,135.541061 272.184418,133.612122 
	C273.616730,126.732368 277.398285,123.764137 284.425659,123.653824 
	C306.763672,123.303185 328.490997,127.030418 349.583893,134.124496 
	C398.708344,150.646317 436.606659,181.361618 463.760529,225.422821 
	C469.600098,234.898438 468.284576,240.556870 458.810669,246.035629 
	C402.765778,278.446472 346.698181,310.818115 290.615509,343.163483 
	C281.084991,348.660156 271.905792,343.252441 271.835052,331.962280 
	C271.694153,309.475616 271.790558,286.987518 271.788574,264.000000 
M301.548401,309.995361 
	C309.920197,305.177368 318.295105,300.364807 326.663208,295.540436 
	C362.447876,274.909698 398.237335,254.287247 434.006775,233.630096 
	C439.494812,230.460693 439.496674,230.202789 435.778778,225.059464 
	C426.957123,212.855591 416.860291,201.798096 405.470123,191.965118 
	C375.849060,166.393616 341.379486,151.908630 302.623871,147.410583 
	C295.608856,146.596405 295.214142,147.079300 295.215240,154.081406 
	C295.223145,204.910690 295.229187,255.740005 295.287354,306.569244 
	C295.289490,308.448822 294.548218,310.581635 296.348297,312.241272 
	C298.148071,312.236633 299.423828,311.016815 301.548401,309.995361 
z"/>
<path fill="#000000" opacity="1.000000" stroke="none" 
	d="
M697.000122,416.657837 
	C710.491150,416.659576 723.482300,416.639771 736.473267,416.671814 
	C744.537903,416.691711 748.745911,420.742462 749.167847,428.806732 
	C749.228699,429.969574 749.186829,431.137970 749.186890,432.303802 
	C749.190308,491.929413 749.193970,551.555054 749.195251,611.180664 
	C749.195496,622.625793 745.468506,626.327576 733.889648,626.338074 
	C715.902039,626.354431 697.914429,626.368469 679.926819,626.344421 
	C669.802246,626.330872 665.830078,622.355591 665.818237,612.057495 
	C665.777527,576.748474 665.796631,541.439453 665.794861,506.130432 
	C665.793579,481.147644 665.792725,456.164825 665.797302,431.182037 
	C665.799255,420.458740 669.512085,416.671753 680.011414,416.663116 
	C685.507629,416.658600 691.003845,416.659637 697.000122,416.657837 
M689.217102,524.500000 
	C689.216125,548.993103 689.209351,573.486145 689.222046,597.979248 
	C689.223511,600.799011 688.748108,603.780579 693.283508,603.699951 
	C702.777649,603.531128 712.277954,603.591125 721.773926,603.705200 
	C724.839905,603.742065 725.896301,602.445190 725.846985,599.516052 
	C725.743042,593.352905 725.821533,587.186829 725.822144,581.021912 
	C725.826660,535.868042 725.771179,490.714020 725.922424,445.560638 
	C725.938171,440.854431 724.690369,439.042572 719.760803,439.259491 
	C711.612488,439.618073 703.424072,439.617157 695.276794,439.241913 
	C690.345520,439.014862 689.071289,440.816467 689.106384,445.522797 
	C689.300171,471.514008 689.210449,497.507385 689.217102,524.500000 
z"/>
<path fill="#000000" opacity="1.000000" stroke="none" 
	d="
M477.825745,523.000000 
	C477.822693,475.335999 477.828552,428.172028 477.807678,381.008026 
	C477.804657,374.224060 478.771545,373.121796 470.758972,373.220825 
	C464.159637,373.302399 459.510010,367.993439 459.669495,361.600677 
	C459.835480,354.945282 464.257080,350.737274 471.286499,350.670197 
	C477.452240,350.611359 483.619598,350.609009 489.785156,350.678711 
	C496.448456,350.753998 500.356873,354.271118 501.110260,360.839355 
	C501.299194,362.486420 501.205688,364.168335 501.205841,365.834229 
	C501.212555,447.829590 501.216949,529.824951 501.216614,611.820312 
	C501.216553,622.650696 497.602509,626.332947 486.977112,626.339966 
	C468.478180,626.352295 449.979156,626.378479 431.480316,626.344910 
	C422.465881,626.328552 417.933228,622.035278 417.853302,612.885803 
	C417.690277,594.221619 417.714020,575.554565 417.838867,556.889832 
	C417.885437,549.926025 421.814514,544.795593 427.230072,543.811768 
	C433.182343,542.730530 438.381256,545.604004 440.516449,551.053650 
	C441.275269,552.990295 441.204926,554.971741 441.206757,556.964355 
	C441.219330,570.796875 441.306549,584.630188 441.167908,598.461304 
	C441.130127,602.233276 442.186188,603.859802 446.277344,603.738770 
	C455.102417,603.477722 463.946136,603.478210 472.770966,603.744751 
	C476.848755,603.867920 477.884033,602.297791 477.867004,598.495728 
	C477.755096,573.497559 477.819305,548.498657 477.825745,523.000000 
z"/>
</svg>