<svg version="1.1" id="Layer_1" xmlns="http://www.w3.org/2000/svg" xmlns:xlink="http://www.w3.org/1999/xlink" x="0px" y="0px"
	 width="100%" viewBox="0 0 1024 1024" enable-background="new 0 0 1024 1024" xml:space="preserve">
<path fill="#000000" opacity="1.000000" stroke="none" 
	d="
M362.807861,817.979980 
	C322.356323,827.290405 282.315887,836.536743 242.243240,845.641235 
	C226.418945,849.236389 213.746307,836.720764 217.337585,821.002869 
	C228.521301,772.055298 239.841629,723.138977 251.122162,674.213562 
	C255.902435,653.480957 260.873016,632.790283 265.416626,612.006104 
	C266.760986,605.856689 269.539032,600.963196 273.923187,596.582092 
	C375.517853,495.059631 477.065521,393.490173 578.624084,291.931671 
	C643.070190,227.485687 707.532471,163.055923 771.962219,98.593689 
	C802.486450,68.054153 846.120178,68.059830 876.590759,98.613327 
	C906.243713,128.346817 935.913635,158.063583 965.652832,187.710709 
	C980.231140,202.243805 987.558350,219.792328 987.191040,240.257874 
	C986.847107,259.418457 979.508667,275.860168 965.933655,289.440338 
	C888.424805,366.978699 810.912720,444.513702 733.391602,522.039734 
	C670.594421,584.840698 607.779663,647.624084 544.979492,710.422058 
	C518.473694,736.926941 491.958923,763.423035 465.515900,789.990417 
	C461.347107,794.178833 456.456268,796.357056 450.730927,797.648987 
	C421.523010,804.239563 392.375031,811.095825 362.807861,817.979980 
M681.739380,516.239624 
	C737.361389,460.634094 792.999268,405.044403 848.585510,349.403107 
	C855.565491,342.416199 854.824402,343.788605 848.664795,337.618073 
	C807.932739,296.813782 767.174622,256.035278 726.338074,215.335648 
	C719.347717,208.368774 721.208740,206.778610 712.752747,215.241180 
	C664.700256,263.330963 616.693665,311.466644 568.620667,359.535889 
	C485.198639,442.951538 401.752533,526.343140 318.240326,609.668457 
	C315.363495,612.538879 315.089722,614.219177 318.118866,617.235840 
	C360.506165,659.449097 402.814148,701.742310 444.990326,744.166321 
	C448.558807,747.755737 450.461273,747.715881 454.046021,744.120483 
	C529.694641,668.244568 605.479126,592.504150 681.739380,516.239624 
M842.184875,122.273544 
	C828.787415,113.647552 814.557678,114.047417 803.634521,124.570824 
	C786.129089,141.435516 769.200500,158.898315 751.976379,176.056335 
	C749.352600,178.670013 749.156494,180.644302 751.990356,183.468201 
	C794.569031,225.897537 837.068420,268.406494 879.511230,310.971771 
	C882.195923,313.664185 884.095886,313.990662 886.894836,311.166473 
	C903.657471,294.252991 920.725037,277.638214 937.322021,260.565277 
	C950.387146,247.125504 949.837341,229.353989 936.577698,216.078049 
	C920.809265,200.290436 905.069336,184.474075 889.256287,168.731277 
	C873.800415,153.344101 858.268066,138.033890 842.184875,122.273544 
M367.095215,775.505371 
	C380.720398,772.281494 394.345551,769.057617 406.580811,766.162598 
	C370.082886,729.615906 333.598236,693.082520 296.819305,656.254395 
	C286.013123,703.109558 275.079163,750.518799 263.861084,799.160034 
	C299.006592,791.086548 332.637939,783.360840 367.095215,775.505371 
z"/>
<path fill="#000000" opacity="1.000000" stroke="none" 
	d="
M280.999939,945.354980 
	C212.351257,945.353333 144.202591,945.347717 76.053940,945.354004 
	C67.749649,945.354736 61.672020,941.625549 57.907417,934.321045 
	C54.101852,926.937073 55.041431,919.782349 59.769691,913.128967 
	C63.751339,907.526123 69.645233,905.483643 76.196800,904.957458 
	C78.184471,904.797852 80.193558,904.891846 82.192841,904.891907 
	C272.975800,904.893250 463.758728,904.898010 654.541687,904.888611 
	C657.880310,904.888489 661.191223,904.971741 664.480408,905.651428 
	C674.611877,907.745117 681.089478,916.616028 680.275085,927.361511 
	C679.529968,937.192566 671.033081,945.272583 660.899353,945.312073 
	C632.740479,945.421814 604.581055,945.360962 576.421814,945.360840 
	C478.114532,945.360352 379.807220,945.356934 280.999939,945.354980 
z"/>
</svg>